# xmcd CD database file
#
# Track frame offsets:
#	150
#	3630
#	19096
#	33191
#	48893
#	63587
#	91794
#	111318
#	132501
#	146422
#	163440
#	184623
#	199012
#	215777
#
# Disc length: 3051 seconds
#
# Revision: 0
# Processed by: cddbd v1.5PL3 Copyright (c) Steve Scherf et al.
# Submitted via: CDex 1.51
#
DISCID=c80be90e
DTITLE=Sojiro - Church (Ocarina Etude 4)
DYEAR=2001
DGENRE=New Age
TTITLE0=Kyrie (Mass for Three Voice )
TTITLE1=Aver Verum Corpus
TTITLE2=Pie Jesu (Requiem )
TTITLE3=The First Noel,The Angel Did Sing
TTITLE4=Ave Verum Corpus
TTITLE5=Eich Jesum habe
TTITLE6=What a Friend We Have in Jesus
TTITLE7=Ave Maria
TTITLE8=(Chinese Writing)
TTITLE9=China Roses
TTITLE10=O Come, All Ye Faithful
TTITLE11=(Chinese Writing)
TTITLE12=Marble Halls
TTITLE13=Ma belle si ton ame
EXTD=YEAR: 2001
EXTT0=
EXTT1=
EXTT2=
EXTT3=
EXTT4=
EXTT5=
EXTT6=
EXTT7=
EXTT8=
EXTT9=
EXTT10=
EXTT11=
EXTT12=
EXTT13=
PLAYORDER=
